<svg xmlns="http://www.w3.org/2000/svg" xmlns:xlink="http://www.w3.org/1999/xlink" viewBox="0 0 455.71 354.96">
            <defs>
                <style>
                    .cls-1 {
                        fill: none;
                    }

                    .cls-2 {
                        isolation: isolate;
                    }

                    .cls-3 {
                        opacity: 0.2;
                    }

                    .cls-4,
                    .cls-6,
                    .cls-7 {
                        opacity: 0.6;
                    }

                    .cls-12,
                    .cls-13,
                    .cls-14,
                    .cls-4,
                    .cls-6,
                    .cls-7 {
                        mix-blend-mode: lighten;
                    }

                    .cls-4 {
                        fill: url(#Áåçûìÿííûé_ãðàäèåíò_13);
                    }

                    .cls-5,
                    .cls-9 {
                        opacity: 0.5;
                    }

                    .cls-6 {
                        fill: url(#Áåçûìÿííûé_ãðàäèåíò_13-2);
                    }

                    .cls-7 {
                        fill: url(#Áåçûìÿííûé_ãðàäèåíò_13-3);
                    }

                    .cls-10,
                    .cls-11,
                    .cls-8,
                    .cls-9 {
                        fill: #42e8e0;
                    }

                    .cls-12,
                    .cls-13,
                    .cls-8 {
                        opacity: 0.3;
                    }

                    .cls-10 {
                        opacity: 0.7;
                    }

                    .cls-12 {
                        fill: url(#Áåçûìÿííûé_ãðàäèåíò_211);
                    }

                    .cls-13 {
                        fill: url(#Áåçûìÿííûé_ãðàäèåíò_211-2);
                    }

                    .cls-15 {
                        fill: url(#Áåçûìÿííûé_ãðàäèåíò_3);
                    }

                    .cls-16 {
                        fill: url(#Áåçûìÿííûé_ãðàäèåíò_24);
                    }

                    .cls-17 {
                        fill: #24126a;
                    }

                    .cls-18 {
                        opacity: 0.51;
                    }

                    .cls-19 {
                        fill: #453c9e;
                    }

                    .cls-20 {
                        fill: url(#Áåçûìÿííûé_ãðàäèåíò_24-2);
                    }

                    .cls-21 {
                        fill: url(#Áåçûìÿííûé_ãðàäèåíò_3-2);
                    }

                    .cls-22 {
                        fill: #fff;
                    }

                    .cls-23 {
                        fill: #2842a2;
                    }

                    .cls-24 {
                        fill: #adb1f2;
                    }

                    .cls-25 {
                        fill: #9198db;
                    }

                    .cls-26 {
                        fill: url(#Áåçûìÿííûé_ãðàäèåíò_3-3);
                    }

                    .cls-27 {
                        opacity: 0.11;
                    }

                    .cls-28 {
                        clip-path: url(#clip-path);
                    }

                    .cls-29 {
                        fill: url(#Áåçûìÿííûé_ãðàäèåíò_3-4);
                    }

                    .cls-30 {
                        fill: url(#Áåçûìÿííûé_ãðàäèåíò_3-5);
                    }

                    .cls-31 {
                        opacity: 0.8;
                        fill: url(#Áåçûìÿííûé_ãðàäèåíò_2);
                    }

                    .tld-1 {
                        fill: #020230;
                        opacity: 0.6;
                    }

                    .tld-2 {
                        fill: url(#Dégradé_sans_nom_97);
                    }

                    .tld-3 {
                        fill: #24126a;
                    }

                    .tld-4 {
                        fill: #06033e;
                        opacity: 0.4;
                    }

                    .tld-5 {
                        fill: url(#Dégradé_sans_nom_87);
                    }

                    .tld-6 {
                        fill: url(#Dégradé_sans_nom_29);
                    }

                    .tld-7 {
                        fill: url(#Dégradé_sans_nom_94);
                    }

                    .tld-8 {
                        fill: url(#Dégradé_sans_nom_29-2);
                    }

                    .tld-9 {
                        fill: #204984;
                    }

                    .tld-10 {
                        fill: #c0bff6;
                    }
                </style>
                <linearGradient id="Áåçûìÿííûé_ãðàäèåíò_13" x1="-4445.53" y1="-1360.09" x2="-4445.53" y2="-1595.02"
                    gradientTransform="matrix(-0.87, 0.5, 1, 0.58, -2124.95, 3390.9)" gradientUnits="userSpaceOnUse">
                    <stop offset="0" stop-color="#42e8e0" />
                    <stop offset="0.02" stop-color="#40deda" />
                    <stop offset="0.11" stop-color="#37adbc" />
                    <stop offset="0.22" stop-color="#2e82a2" />
                    <stop offset="0.32" stop-color="#285e8c" />
                    <stop offset="0.43" stop-color="#22417a" />
                    <stop offset="0.55" stop-color="#1e2a6c" />
                    <stop offset="0.67" stop-color="#1a1a63" />
                    <stop offset="0.81" stop-color="#19105d" />
                    <stop offset="1" stop-color="#180d5b" />
                </linearGradient>
                <linearGradient id="Áåçûìÿííûé_ãðàäèåíò_13-2" x1="-4459.8" y1="-1372.45" x2="-4459.8" y2="-1607.38"
                    xlink:href="#Áåçûìÿííûé_ãðàäèåíò_13" />
                <linearGradient id="Áåçûìÿííûé_ãðàäèåíò_13-3" x1="-4474.08" y1="-1384.81" x2="-4474.08" y2="-1619.75"
                    xlink:href="#Áåçûìÿííûé_ãðàäèåíò_13" />
                <radialGradient id="Áåçûìÿííûé_ãðàäèåíò_211" cx="-2190.47" cy="-516.42" r="93.46"
                    gradientTransform="matrix(-0.87, 0.5, 0.87, 0.5, -1335.26, 1419.53)" gradientUnits="userSpaceOnUse">
                    <stop offset="0" stop-color="#42e8e0" />
                    <stop offset="0.15" stop-color="#33aeb9" />
                    <stop offset="0.31" stop-color="#267a95" />
                    <stop offset="0.47" stop-color="#1b5078" />
                    <stop offset="0.62" stop-color="#132e61" />
                    <stop offset="0.76" stop-color="#0d1651" />
                    <stop offset="0.89" stop-color="#090847" />
                    <stop offset="1" stop-color="#080344" />
                </radialGradient>
                <radialGradient id="Áåçûìÿííûé_ãðàäèåíò_211-2" cx="-2148.62" cy="-169.81" r="63.13"
                    xlink:href="#Áåçûìÿííûé_ãðàäèåíò_211" />
                <linearGradient id="Áåçûìÿííûé_ãðàäèåíò_3" x1="2462.15" y1="223.62" x2="2628.19" y2="223.62"
                    gradientTransform="translate(-2278.69)" gradientUnits="userSpaceOnUse">
                    <stop offset="0" stop-color="#c0bff6" />
                    <stop offset="0.29" stop-color="#c5c4f7" />
                    <stop offset="0.64" stop-color="#d3d2f9" />
                    <stop offset="1" stop-color="#e9e9fd" />
                </linearGradient>
                <linearGradient id="Áåçûìÿííûé_ãðàäèåíò_24" x1="2462.15" y1="266.21" x2="2490.66" y2="266.21"
                    gradientTransform="translate(-2278.69)" gradientUnits="userSpaceOnUse">
                    <stop offset="0" stop-color="#5761d7" />
                    <stop offset="0.18" stop-color="#5c66d9" />
                    <stop offset="0.39" stop-color="#6a73df" />
                    <stop offset="0.61" stop-color="#8289e8" />
                    <stop offset="0.85" stop-color="#a3a7f5" />
                    <stop offset="1" stop-color="#bcbeff" />
                </linearGradient>
                <linearGradient id="Áåçûìÿííûé_ãðàäèåíò_24-2" x1="2484.4" y1="314.07" x2="2718.9" y2="314.07"
                    xlink:href="#Áåçûìÿííûé_ãðàäèåíò_24" />
                <linearGradient id="Áåçûìÿííûé_ãðàäèåíò_3-2" x1="2563.19" y1="306.25" x2="2797.82" y2="306.25"
                    xlink:href="#Áåçûìÿííûé_ãðàäèåíò_3" />
                <linearGradient id="Áåçûìÿííûé_ãðàäèåíò_3-3" x1="2602.93" y1="319.57" x2="2662.99" y2="319.57"
                    xlink:href="#Áåçûìÿííûé_ãðàäèåíò_3" />
                <clipPath id="clip-path" transform="translate(-57.49 -117.47)">
                    <polygon id="SVGID" class="cls-1"
                        points="329.47 133.68 190.92 213.67 208.1 314.96 346.56 235.02 329.47 133.68" />
                </clipPath>
                <linearGradient id="Áåçûìÿííûé_ãðàäèåíò_3-4" x1="2473.55" y1="254.25" x2="2708.18" y2="254.25"
                    xlink:href="#Áåçûìÿííûé_ãðàäèåíò_3" />
                <linearGradient id="Áåçûìÿííûé_ãðàäèåíò_3-5" x1="2458.11" y1="237.02" x2="2518.17" y2="237.02"
                    xlink:href="#Áåçûìÿííûé_ãðàäèåíò_3" />
                <linearGradient id="Áåçûìÿííûé_ãðàäèåíò_2" x1="320.94" y1="66.6" x2="388.03" y2="66.6"
                    gradientUnits="userSpaceOnUse">
                    <stop offset="0" stop-color="#5761d7" />
                    <stop offset="0.07" stop-color="#5472d8" />
                    <stop offset="0.28" stop-color="#4e9cdb" />
                    <stop offset="0.48" stop-color="#49bddd" />
                    <stop offset="0.67" stop-color="#45d5df" />
                    <stop offset="0.85" stop-color="#43e3e0" />
                    <stop offset="1" stop-color="#42e8e0" />
                </linearGradient>
                <linearGradient id="Dégradé_sans_nom_97" x1="468.34" y1="195.38" x2="527.19" y2="195.38"
                    gradientUnits="userSpaceOnUse">
                    <stop offset="0" stop-color="#3199c9" />
                    <stop offset="1" stop-color="#14288f" />
                </linearGradient>
                <linearGradient id="Dégradé_sans_nom_87" x1="466.57" y1="153.8" x2="528.96" y2="153.8"
                    gradientUnits="userSpaceOnUse">
                    <stop offset="0" stop-color="#443991" />
                    <stop offset="0.25" stop-color="#39b2c1" />
                    <stop offset="1" stop-color="#24126a" />
                </linearGradient>
                <linearGradient id="Dégradé_sans_nom_29" x1="4.65" y1="17.73" x2="55.33" y2="17.73"
                    xlink:href="#Dégradé_sans_nom_97" />
                <linearGradient id="Dégradé_sans_nom_94" x1="472.42" y1="143.94" x2="536.33" y2="143.94"
                    gradientUnits="userSpaceOnUse">
                    <stop offset="0" stop-color="#24126a" />
                    <stop offset="0.17" stop-color="#24146b" />
                    <stop offset="0.26" stop-color="#251c70" />
                    <stop offset="0.33" stop-color="#272a77" />
                    <stop offset="0.38" stop-color="#2a3d81" />
                    <stop offset="0.44" stop-color="#2d558f" />
                    <stop offset="0.49" stop-color="#3274a0" />
                    <stop offset="0.53" stop-color="#3798b4" />
                    <stop offset="0.57" stop-color="#3dc1ca" />
                    <stop offset="0.61" stop-color="#42e8e0" />
                    <stop offset="0.64" stop-color="#43d1d5" />
                    <stop offset="0.7" stop-color="#44a4c1" />
                    <stop offset="0.76" stop-color="#457eaf" />
                    <stop offset="0.82" stop-color="#4661a2" />
                    <stop offset="0.88" stop-color="#474d99" />
                    <stop offset="0.94" stop-color="#474093" />
                    <stop offset="1" stop-color="#473c91" />
                </linearGradient>
                <linearGradient id="Dégradé_sans_nom_29-2" x1="467.06" y1="150.63" x2="528.47" y2="150.63"
                    xlink:href="#Dégradé_sans_nom_97" />
            </defs>
            <g class="cls-2">
                <g id="Ñëîé_1" data-name="Ñëîé 1">

                    <g class="animate-reverse">
                        <g class="cls-3">
                            <path class="cls-4"
                                d="M60,287.5l139.83-80.73L430.15,339.89a3,3,0,0,1,0,5.19L300.36,420a11.07,11.07,0,0,1-11.1,0Z"
                                transform="translate(-57.49 -117.47)" />
                        </g>
                        <g class="cls-5">
                            <path class="cls-6"
                                d="M60,273.22l139.83-80.73L430.15,325.61a3,3,0,0,1,0,5.2L300.36,405.74a11.11,11.11,0,0,1-11.1,0Z"
                                transform="translate(-57.49 -117.47)" />
                        </g>
                        <path class="cls-7"
                            d="M60,259l139.83-80.73L430.15,311.34a3,3,0,0,1,0,5.19L300.36,391.46a11.07,11.07,0,0,1-11.1,0Z"
                            transform="translate(-57.49 -117.47)" />
                        <ellipse class="cls-12" cx="114.47" cy="66.09" rx="114.47" ry="66.09" />
                        <ellipse class="cls-13" cx="378.39" cy="260.32" rx="77.32" ry="44.64" />
                    </g>

                    <g class="animate">
                        <polygon class="cls-8"
                            points="114.24 114.32 88.26 99.32 114.24 84.32 140.22 99.32 114.24 114.32" />
                        <polygon class="cls-9"
                            points="114.24 97.04 88.26 82.04 114.24 67.03 140.22 82.04 114.24 97.04" />
                        <polygon class="cls-10"
                            points="114.24 83.19 88.26 68.18 114.24 53.18 140.22 68.18 114.24 83.19" />
                        <path class="cls-11"
                            d="M171.73,201.39a.68.68,0,0,1-.36-.1l-26-15a.74.74,0,0,1,0-1.28l26-15a.75.75,0,0,1,.74,0l26,15a.74.74,0,0,1,0,1.28l-26,15A.69.69,0,0,1,171.73,201.39Zm-24.51-15.74,24.51,14.15,24.51-14.15L171.73,171.5Z"
                            transform="translate(-57.49 -117.47)" />
                    </g>
                    <g class="animate">
                        <g class="cls-14">
                            <path class="cls-11"
                                d="M294.94,393.53a12.9,12.9,0,0,1-6.48-1.74l-74.73-43.14a3.74,3.74,0,0,1,0-6.48l135.21-78.06a.73.73,0,0,1,.73,0l80.85,46.67a3.74,3.74,0,0,1,0,6.48l-129.1,74.53A12.9,12.9,0,0,1,294.94,393.53ZM349.31,265.6,214.47,343.45a2.26,2.26,0,0,0,0,3.92l74.73,43.15a11.75,11.75,0,0,0,11.49,0L429.78,316a2.27,2.27,0,0,0,0-3.93Z"
                                transform="translate(-57.49 -117.47)" />
                        </g>
                    </g>
                    <g class="animate">
                        <path class="cls-15"
                            d="M349.47,234l-18-106.7,1.44-.61-2.17-1.24h0a1.57,1.57,0,0,0-1.68.11l-143.73,83a4.06,4.06,0,0,0-1.87,3.65l18.13,107.55a1.32,1.32,0,0,0,.76,1.09h0L204.5,322l.37-2-.13,0L347.61,237.6A4,4,0,0,0,349.47,234Z"
                            transform="translate(-57.49 -117.47)" />
                        <path class="cls-16"
                            d="M186.16,211.43l-2.36-1.05a3.23,3.23,0,0,0-.31,1.78l18.13,107.55a1.32,1.32,0,0,0,.76,1.09h0L204.5,322l.37-2-.13,0,7.23-4.17Z"
                            transform="translate(-57.49 -117.47)" />
                        <path class="cls-11"
                            d="M349.47,234l-18-106.7,1.1-.46c-.38-.68-1.16-.83-2.06-.31l-143.73,83a4.08,4.08,0,0,0-1.87,3.65l18.13,107.55a1.77,1.77,0,0,0,.27.7l.85.48a1.47,1.47,0,0,0,.36,0l.33-1.78-.13,0L347.61,237.6A4,4,0,0,0,349.47,234Z"
                            transform="translate(-57.49 -117.47)" />
                        <path class="cls-17"
                            d="M349.86,238.89l-143.73,83c-1.11.64-2.06.27-2.26-.88L185.75,213.45a4,4,0,0,1,1.86-3.65l143.74-83c1.11-.64,2.06-.27,2.25.88l18.13,107.54A4,4,0,0,1,349.86,238.89Z"
                            transform="translate(-57.49 -117.47)" />
                        <g class="cls-18">
                            <polygon class="cls-19"
                                points="271.97 16.22 133.43 96.21 150.61 197.49 289.06 117.56 271.97 16.22" />
                        </g>
                        <path class="cls-20"
                            d="M440.21,289.81l-7.84,4.1L353.71,248.5a5.69,5.69,0,0,0-5.13.21L212.92,327c-1.29-.72-7.21-3.57-7.21-3.57l2.87,7.48h0a1.72,1.72,0,0,0,.8.89l82.84,47.83a5.74,5.74,0,0,0,5.14-.21l138.81-80.15a2.49,2.49,0,0,0,1.17-1.24h0Z"
                            transform="translate(-57.49 -117.47)" />
                        <path class="cls-21"
                            d="M439,291.1,296.73,373.24a5.84,5.84,0,0,1-5.26.22l-84.9-49c-1.35-.78-1.18-2.14.38-3l142.27-82.14a5.84,5.84,0,0,1,5.26-.22l84.9,49C440.73,288.84,440.56,290.2,439,291.1Z"
                            transform="translate(-57.49 -117.47)" />
                        <path class="cls-22"
                            d="M439,290.28,296.73,372.42a5.84,5.84,0,0,1-5.26.22l-84.9-49a1.74,1.74,0,0,1-.83-.91,1.44,1.44,0,0,0,.83,1.73l84.9,49a5.84,5.84,0,0,0,5.26-.22L439,291.1c1.05-.6,1.45-1.41,1.2-2.12A2.52,2.52,0,0,1,439,290.28Z"
                            transform="translate(-57.49 -117.47)" />
                        <path class="cls-23"
                            d="M253.82,355.47v-1.56c0-.15.09-.21.2-.15l5.5,3.18a.47.47,0,0,1,.2.38v1.56c0,.15-.09.22-.2.15l-5.5-3.17A.5.5,0,0,1,253.82,355.47Z"
                            transform="translate(-57.49 -117.47)" />
                        <path class="cls-23"
                            d="M262,360.22v-1.56c0-.14.09-.21.21-.15l5.5,3.18a.48.48,0,0,1,.2.38v1.56c0,.15-.09.22-.2.16l-5.5-3.18A.48.48,0,0,1,262,360.22Z"
                            transform="translate(-57.49 -117.47)" />
                        <path class="cls-24"
                            d="M228.7,319.85l118.23-68.26a2.58,2.58,0,0,1,2.55,0L391.58,276a.91.91,0,0,1,0,1.57L273.4,345.75a2.51,2.51,0,0,1-2.54,0L228.7,321.42A.91.91,0,0,1,228.7,319.85Z"
                            transform="translate(-57.49 -117.47)" />
                        <path class="cls-25"
                            d="M228.7,321.42l.43.25,117.8-68a2.55,2.55,0,0,1,2.55,0l41.67,24.11.43-.25a.91.91,0,0,0,0-1.57l-42.1-24.36a2.58,2.58,0,0,0-2.55,0L228.7,319.85A.91.91,0,0,0,228.7,321.42Z"
                            transform="translate(-57.49 -117.47)" />
                        <polygon class="cls-17"
                            points="295.16 140.3 192.46 199.59 187.9 196.95 290.6 137.66 295.16 140.3" />
                        <polygon class="cls-17"
                            points="306.36 146.76 210.03 202.38 205.46 199.74 301.79 144.13 306.36 146.76" />
                        <polygon class="cls-17"
                            points="313.65 150.97 200.23 216.45 195.67 213.81 309.08 148.34 313.65 150.97" />
                        <polygon class="cls-17"
                            points="320.94 155.18 207.53 220.66 202.96 218.02 316.37 152.54 320.94 155.18" />
                        <polygon class="cls-17"
                            points="328.23 159.39 214.82 224.87 210.25 222.23 323.66 156.75 328.23 159.39" />
                        <polygon class="cls-17"
                            points="186.26 203.17 181.69 205.81 177.13 203.17 181.69 200.54 186.26 203.17" />
                        <polygon class="cls-17"
                            points="202.37 206.8 192.89 212.27 188.32 209.64 197.8 204.16 202.37 206.8" />
                        <path class="cls-26"
                            d="M351.48,336.37,383.36,318a1.38,1.38,0,0,0,0-2.61l-21.8-12.59a5,5,0,0,0-4.51,0l-31.88,18.41c-1.25.72-1.25,1.89,0,2.6L347,336.37A5,5,0,0,0,351.48,336.37Z"
                            transform="translate(-57.49 -117.47)" />
                        <path class="cls-25"
                            d="M325.17,322.25l31.88-18.41a5,5,0,0,1,4.51,0l21.8,12.59a1.92,1.92,0,0,1,.78.77c.33-.63.08-1.34-.78-1.84l-21.8-12.59a5,5,0,0,0-4.51,0l-31.88,18.41c-.86.5-1.11,1.21-.78,1.84A1.86,1.86,0,0,1,325.17,322.25Z"
                            transform="translate(-57.49 -117.47)" />
                        <g class="code">
                            <polygon class="cls-11"
                                points="190.12 80.01 173.81 89.44 173.48 87.49 189.79 78.06 190.12 80.01" />
                            <polygon class="cls-11"
                                points="195.87 76.69 191.83 79.02 191.5 77.07 195.54 74.74 195.87 76.69" />
                            <polygon class="cls-11"
                                points="178.98 91.33 174.56 93.88 174.23 91.94 178.65 89.38 178.98 91.33" />
                            <polygon class="cls-11"
                                points="189.35 85.34 180.69 90.34 180.36 88.39 189.02 83.39 189.35 85.34" />
                            <polygon class="cls-11"
                                points="193.8 82.76 191.06 84.35 190.73 82.4 193.47 80.81 193.8 82.76" />
                            <polygon class="cls-11"
                                points="204.25 76.73 195.59 81.74 195.26 79.79 203.92 74.78 204.25 76.73" />
                            <polygon class="cls-11"
                                points="208.71 74.16 205.97 75.74 205.64 73.8 208.38 72.21 208.71 74.16" />
                            <polygon class="cls-11"
                                points="184.35 93.1 175.31 98.33 174.98 96.38 184.02 91.16 184.35 93.1" />
                            <polygon class="cls-11"
                                points="192.6 88.33 186.06 92.11 185.73 90.17 192.27 86.39 192.6 88.33" />
                            <polygon class="cls-11"
                                points="198.73 84.79 194.31 87.34 193.98 85.4 198.4 82.84 198.73 84.79" />
                            <polygon class="cls-11"
                                points="205.11 81.11 200.69 83.67 200.36 81.72 204.78 79.17 205.11 81.11" />
                            <polygon class="cls-11"
                                points="215.48 75.12 206.82 80.13 206.49 78.18 215.15 73.17 215.48 75.12" />
                            <polygon class="cls-11"
                                points="219.94 72.55 217.19 74.13 216.87 72.18 219.61 70.6 219.94 72.55" />
                            <polygon class="cls-11"
                                points="185.16 97.52 176.12 102.75 175.79 100.8 184.83 95.58 185.16 97.52" />
                            <polygon class="cls-11"
                                points="193.41 92.75 186.87 96.53 186.54 94.59 193.08 90.81 193.41 92.75" />
                            <polygon class="cls-11"
                                points="199.54 89.21 195.12 91.77 194.79 89.82 199.21 87.27 199.54 89.21" />
                            <polygon class="cls-11"
                                points="205.86 85.56 201.44 88.12 201.11 86.17 205.53 83.62 205.86 85.56" />
                            <polygon class="cls-11"
                                points="224.53 74.8 208.22 84.22 207.89 82.28 224.2 72.85 224.53 74.8" />
                            <polygon class="cls-11"
                                points="230.28 71.47 226.24 73.81 225.91 71.86 229.95 69.53 230.28 71.47" />
                            <polygon class="cls-11"
                                points="241.59 64.95 232.55 70.18 232.22 68.23 241.26 63.01 241.59 64.95" />
                            <polygon class="cls-11"
                                points="249.84 60.19 243.3 63.97 242.97 62.02 249.51 58.24 249.84 60.19" />
                            <polygon class="cls-11"
                                points="255.97 56.64 251.55 59.2 251.22 57.25 255.64 54.7 255.97 56.64" />
                            <polygon class="cls-11"
                                points="177.29 109.72 181.33 107.39 181.66 109.34 177.62 111.67 177.29 109.72" />
                            <polygon class="cls-11"
                                points="179.92 105.43 176.87 107.2 176.54 105.25 179.59 103.48 179.92 105.43" />
                            <polygon class="cls-11"
                                points="185.67 102.11 181.63 104.44 181.31 102.49 185.34 100.16 185.67 102.11" />
                            <polygon class="cls-11"
                                points="193.88 97.36 187.38 101.12 187.05 99.17 193.56 95.41 193.88 97.36" />
                            <polygon class="cls-11"
                                points="183.04 106.4 186.1 104.64 186.43 106.58 183.37 108.35 183.04 106.4" />
                            <polygon class="cls-11"
                                points="183.42 110.97 187.46 108.64 187.79 110.58 183.75 112.92 183.42 110.97" />
                            <polygon class="cls-11"
                                points="189.17 107.65 192.23 105.88 192.56 107.83 189.5 109.59 189.17 107.65" />
                            <polygon class="cls-11"
                                points="184.12 115.45 186.86 113.87 187.19 115.81 184.45 117.4 184.12 115.45" />
                            <polygon class="cls-11"
                                points="188.58 112.88 197.24 107.87 197.56 109.82 188.91 114.82 188.58 112.88" />
                            <polygon class="cls-11"
                                points="191.25 116.24 193.99 114.65 194.32 116.6 191.58 118.19 191.25 116.24" />
                            <polygon class="cls-11"
                                points="195.52 113.77 198.26 112.18 198.59 114.13 195.85 115.71 195.52 113.77" />
                            <polygon class="cls-11"
                                points="199.95 111.21 203.01 109.44 203.34 111.39 200.28 113.16 199.95 111.21" />
                            <polygon class="cls-11"
                                points="204.31 108.7 211.63 104.47 211.96 106.41 204.64 110.64 204.31 108.7" />
                            <polygon class="cls-11"
                                points="212.94 103.72 217.29 101.2 217.62 103.14 213.26 105.66 212.94 103.72" />
                            <polygon class="cls-11"
                                points="192.05 121.01 194.79 119.43 195.12 121.37 192.38 122.96 192.05 121.01" />
                            <polygon class="cls-11"
                                points="196.51 118.44 205.17 113.43 205.5 115.38 196.84 120.39 196.51 118.44" />
                            <polygon class="cls-11"
                                points="192.8 125.44 196.84 123.11 197.16 125.05 193.13 127.38 192.8 125.44" />
                            <polygon class="cls-11"
                                points="198.55 122.11 201.6 120.35 201.93 122.3 198.88 124.06 198.55 122.11" />
                            <polygon class="cls-11"
                                points="193.5 129.92 196.24 128.33 196.57 130.28 193.83 131.86 193.5 129.92" />
                            <polygon class="cls-11"
                                points="197.95 127.34 206.61 122.34 206.94 124.28 198.28 129.29 197.95 127.34" />
                            <polygon class="cls-11"
                                points="187.99 138 190.73 136.41 191.06 138.36 188.32 139.95 187.99 138" />
                            <polygon class="cls-11"
                                points="192.26 135.53 195.01 133.94 195.34 135.89 192.59 137.47 192.26 135.53" />
                            <polygon class="cls-11"
                                points="196.72 132.95 205.48 127.89 205.81 129.84 197.05 134.9 196.72 132.95" />
                            <polygon class="cls-11"
                                points="207.35 127.16 213.86 123.4 214.19 125.34 207.68 129.1 207.35 127.16" />
                            <polygon class="cls-11"
                                points="188.74 142.44 195.24 138.69 195.57 140.63 189.07 144.39 188.74 142.44" />
                            <polygon class="cls-11"
                                points="196.96 137.7 200.99 135.37 201.32 137.31 197.28 139.64 196.96 137.7" />
                            <polygon class="cls-11"
                                points="202.7 134.37 205.76 132.61 206.09 134.56 203.03 136.32 202.7 134.37" />
                            <polygon class="cls-11"
                                points="194.47 143.99 198.88 141.44 199.21 143.38 194.79 145.94 194.47 143.99" />
                            <polygon class="cls-11"
                                points="184.09 149.98 192.75 144.98 193.08 146.93 184.42 151.93 184.09 149.98" />
                            <polygon class="cls-11"
                                points="190.77 151.04 184.85 154.46 185.18 156.4 191.1 152.98 190.77 151.04" />
                            <polygon class="cls-11"
                                points="193.1 149.69 195.85 148.1 196.18 150.05 193.43 151.63 193.1 149.69" />
                            <polygon class="cls-11"
                                points="197.38 147.22 200.12 145.63 200.45 147.58 197.71 149.16 197.38 147.22" />
                            <polygon class="cls-11"
                                points="201.83 144.64 210.6 139.57 210.93 141.52 202.16 146.59 201.83 144.64" />
                            <polygon class="cls-11"
                                points="212.31 138.59 221.67 133.18 222 135.13 212.64 140.53 212.31 138.59" />
                            <polygon class="cls-11"
                                points="223.68 132.02 228.09 129.46 228.42 131.41 224 133.96 223.68 132.02" />
                            <polygon class="cls-11"
                                points="229.81 128.47 236.35 124.69 236.67 126.64 230.14 130.42 229.81 128.47" />
                            <polygon class="cls-11"
                                points="238.06 123.7 247.1 118.48 247.43 120.43 238.39 125.65 238.06 123.7" />
                            <polygon class="cls-11"
                                points="185.6 158.88 196.81 152.4 197.13 154.34 185.93 160.82 185.6 158.88" />
                            <polygon class="cls-11"
                                points="198.61 151.36 204.72 147.83 205.04 149.78 198.94 153.31 198.61 151.36" />
                            <polygon class="cls-11"
                                points="206.54 146.79 209.28 145.2 209.61 147.15 206.87 148.73 206.54 146.79" />
                            <polygon class="cls-11"
                                points="211 144.21 212.51 143.34 212.84 145.28 211.32 146.16 211 144.21" />
                            <polygon class="cls-11"
                                points="214.22 142.35 218.64 139.79 218.97 141.74 214.55 144.29 214.22 142.35" />
                            <polygon class="cls-11"
                                points="220.67 138.65 225.09 136.1 225.42 138.04 221 140.6 220.67 138.65" />

                            <polygon class="cls-11"
                                points="226.81 135.11 233.34 131.33 233.67 133.27 227.13 137.05 226.81 135.11" />
                            <polygon class="cls-11"
                                points="235.06 130.34 244.1 125.11 244.43 127.06 235.38 132.28 235.06 130.34" />
                        </g>
                    </g>
                    <g class="animate-coffee-support">
                        <polygon class="cls-10" points="383.4,411.6 347.6,390.9 383.4,370.2 419.2,390.9"
                            transform="translate(-10.49 -275.47)" />
                        <path class="cls-11" d="M383.4,412.6c-0.2,0-0.4,0-0.5-0.1l-35.8-20.7c-0.3-0.2-0.5-0.5-0.5-0.9s0.2-0.7,0.5-0.9l35.8-20.7
                            c0.3-0.2,0.7-0.2,1,0l35.8,20.7c0.3,0.2,0.5,0.5,0.5,0.9s-0.2,0.7-0.5,0.9l-35.8,20.7C383.7,412.5,383.6,412.6,383.4,412.6z
                            M349.6,390.9l33.8,19.5l33.8-19.5l-33.8-19.5L349.6,390.9z"
                            transform="translate(-10.49 -275.47)" />
                    </g>
                    <g class="animate">
                        <polygon class="cls-10"
                            points="114.24 83.19 88.26 68.18 114.24 53.18 140.22 68.18 114.24 83.19" transform="translate(182.49 233.47)"/>
                        <path class="cls-11"
                            d="M171.73,201.39a.68.68,0,0,1-.36-.1l-26-15a.74.74,0,0,1,0-1.28l26-15a.75.75,0,0,1,.74,0l26,15a.74.74,0,0,1,0,1.28l-26,15A.69.69,0,0,1,171.73,201.39Zm-24.51-15.74,24.51,14.15,24.51-14.15L171.73,171.5Z"
                            transform="translate(125.49 115.47)" />
                        <polygon class="cls-10"
                            points="378.39 268.19 364.76 260.32 378.39 252.45 392.02 260.32 378.39 268.19" />
                        <polygon class="cls-9"
                            points="378.39 260.32 364.76 252.45 378.39 244.58 392.02 252.45 378.39 260.32" />
                        <polygon class="cls-8"
                            points="378.39 252.45 364.76 244.58 378.39 236.71 392.02 244.58 378.39 252.45" />
                        <path class="cls-11"
                            d="M435.88,386.39a.81.81,0,0,1-.37-.09l-13.63-7.88a.73.73,0,0,1,0-1.27l13.63-7.87a.75.75,0,0,1,.74,0l13.63,7.87a.73.73,0,0,1,0,1.27l-13.63,7.88A.78.78,0,0,1,435.88,386.39Zm-12.16-8.6,12.16,7,12.16-7-12.16-7Z"
                            transform="translate(-57.49 -117.47)" />

                        <polygon class="cls-10 "
                            points="80.02 220.14 66.39 212.27 80.02 204.4 93.66 212.27 80.02 220.14" />
                        <path class="cls-11 "
                            d="M137.52,338.35a.79.79,0,0,1-.37-.1l-13.64-7.87a.76.76,0,0,1-.37-.64.75.75,0,0,1,.37-.64l13.64-7.87a.73.73,0,0,1,.73,0l13.64,7.87a.73.73,0,0,1,.37.64.74.74,0,0,1-.37.64l-13.64,7.87A.78.78,0,0,1,137.52,338.35Zm-12.16-8.61,12.16,7,12.15-7-12.16-7Z"
                            transform="translate(-57.49 -117.47)" />
                    </g>
                </g>
            </g>
            <g class="animate-coffee" >
                <ellipse class="tld-1" cx="29.99" cy="108.73" rx="20.66" ry="11.93"
                    transform="translate(468 45)" />
                <path class="tld-2"
                    d="M527.19,156.61H468.34l5.47,63.72h0c0,3.54,2.34,7.07,7,9.77,9.35,5.4,24.52,5.4,33.87,0,4.68-2.7,7-6.23,7-9.77Z"
                    transform="translate(0.49 -90.47)" />
                <path class="tld-3"
                    d="M527.19,156.61H468.34l.9,10.48a22.92,22.92,0,0,0,5.45,4.91c11.25,7.46,29.8,8.9,42.46,3.53l-1.95,46.6a9.15,9.15,0,0,1-2.11,5.55c-1.9,2.25-5.58,4.89-12.64,6.38a33.16,33.16,0,0,0,14.25-4c4.68-2.7,7-6.23,7-9.77l4.39-51.1h0Z"
                    transform="translate(0.49 -90.47)" />
                <ellipse class="tld-4" cx="31.19" cy="23.72" rx="29.42" ry="16.99"
                    transform="translate(0.49 -90.47)" />
                <ellipse class="tld-4" cx="31.19" cy="17.73" rx="25.34" ry="14.63"
                    transform="translate(0.49 -90.47)" />
                <path class="tld-5"
                    d="M528.93,155.81h0v0a.28.28,0,0,1,0-.09l-.57-5.71,0,.07c-.25-4.32-3.23-8.6-8.94-11.89-11.94-6.9-31.31-6.9-43.26,0-5.85,3.38-8.83,7.79-8.95,12.21h0l-.54,5.08c0,.13,0,.26,0,.39v.09h0c-.32,4.84,2.71,9.74,9.11,13.44,12.19,7,31.94,7,44.12,0C526.26,165.62,529.3,160.68,528.93,155.81Z"
                    transform="translate(0.49 -90.47)" />
                <ellipse class="tld-6" cx="29.99" cy="17.73" rx="25.34" ry="14.63"
                    transform="translate(0.49 -90.47)" />
                <path class="tld-4"
                    d="M482.85,142.46c9.9-5.72,25.94-5.72,35.84,0,.13.07.23.15.35.22a19.82,19.82,0,0,0-3.36-2.4c-9.89-5.72-25.94-5.72-35.84,0S470,155,479.49,160.74C473.13,155.08,474.24,147.43,482.85,142.46Z"
                    transform="translate(0.49 -90.47)" />
                <path class="tld-7"
                    d="M479.84,142.82c9.9-5.72,26-5.72,35.84,0,4.39,2.53,6.83,5.76,7.33,9.08.62-4.16-1.82-8.44-7.33-11.62-9.89-5.72-25.94-5.72-35.84,0-5.51,3.18-7.94,7.46-7.32,11.61C473,148.58,475.45,145.35,479.84,142.82Z"
                    transform="translate(0.49 -90.47)" />
                <path class="tld-8"
                    d="M519.58,138.28c-11.93-7-31.37-7.2-43.42-.38s-12.15,18-.22,25.07,31.37,7.2,43.42.38S531.51,145.31,519.58,138.28ZM515.68,161a32.87,32.87,0,0,1-11.52,3.8l-.46-1.51a1.46,1.46,0,0,0-1.39-1h-9.1a1.44,1.44,0,0,0-1.38,1l-.46,1.51a33,33,0,0,1-11.53-3.8c-9.89-5.71-9.89-15,0-20.69s26-5.72,35.84,0S525.58,155.26,515.68,161Z"
                    transform="translate(0.49 -90.47)" />
                <path class="tld-9"
                    d="M500.48,164.09H495a.67.67,0,0,0-.68.68v.1a1.13,1.13,0,0,0,0,.18.68.68,0,0,1,.65-.5h5.44a.67.67,0,0,1,.65.5.58.58,0,0,0,0-.18v-.1A.68.68,0,0,0,500.48,164.09Z"
                    transform="translate(0.49 -90.47)" />
                <path class="tld-10"
                    d="M496.49,217a4.89,4.89,0,1,1-9.45-2.51c.69-2.61,3.15-3.35,5.76-2.65S497.18,214.35,496.49,217Z"
                    transform="translate(0.49 -90.47)" />
                <path class="tld-10"
                    d="M500.33,211.81a2.16,2.16,0,1,1-3-3.09c1-1,2.85-1.44,3.69-.58S501.32,210.85,500.33,211.81Z"
                    transform="translate(0.49 -90.47)" />
                <path class="tld-10"
                    d="M495.22,207.72A2.16,2.16,0,1,1,491,207c.24-1.36,1.49-2.83,2.67-2.62S495.46,206.37,495.22,207.72Z"
                    transform="translate(0.49 -90.47)" />
                <path class="tld-10"
                    d="M488.92,207.1a2.16,2.16,0,1,1-4,1.65c-.52-1.28-.26-3.19.84-3.64S488.4,205.83,488.92,207.1Z"
                    transform="translate(0.49 -90.47)" />
            </g>
        </svg>
