<svg id="bold" xmlns="http://www.w3.org/2000/svg" viewBox="0 0 512 378.21"><defs><style>.cls-1,.cls-2{fill:#0ea8a8;}.cls-2{font-size:61px;font-family:Adlinnaka-BoldDemo, Adlinnaka;font-weight:700;}.cls-3{letter-spacing:-0.01em;}</style></defs><circle class="cls-1" cx="85.33" cy="74.67" r="42.67"/><path class="cls-1" d="M142.29,192.87a89.4,89.4,0,0,0-35.62,71.46v5.34H16a16.12,16.12,0,0,1-16-16V243a58.63,58.63,0,0,1,58.67-58.67H112A58.21,58.21,0,0,1,142.29,192.87Z" transform="translate(0 -45.67)"/><circle class="cls-1" cx="426.67" cy="74.67" r="42.67"/><path class="cls-1" d="M512,243v10.67a16.12,16.12,0,0,1-16,16H405.33v-5.34a89.4,89.4,0,0,0-35.62-71.46A58.21,58.21,0,0,1,400,184.33h53.33A58.63,58.63,0,0,1,512,243Z" transform="translate(0 -45.67)"/><circle class="cls-1" cx="256" cy="64" r="64"/><path class="cls-1" d="M314.67,205.67H197.33a58.71,58.71,0,0,0-58.66,58.66v32a16,16,0,0,0,16,16H357.33a16,16,0,0,0,16-16v-32A58.71,58.71,0,0,0,314.67,205.67Z" transform="translate(0 -45.67)"/><text class="cls-2" transform="translate(142.29 353.91)">KA<tspan class="cls-3" x="91.38" y="0">B</tspan><tspan x="134.63" y="0">AN</tspan></text></svg>