<?xml version="1.0" encoding="UTF-8"?>
<svg xmlns="http://www.w3.org/2000/svg" xmlns:xlink="http://www.w3.org/1999/xlink" width="46pt" height="46pt" viewBox="0 0 56 56" version="1.1">
<g id="surface1">
<path style=" stroke:none;fill-rule:nonzero;fill:rgb(27.843137%,0.392157%,21.568627%);fill-opacity:1;" d="M 9.917969 0.699219 L 46.082031 0.699219 C 51.566406 0.699219 56 5.132812 56 10.617188 L 56 45.382812 C 56 50.867188 51.566406 55.300781 46.082031 55.300781 L 9.917969 55.300781 C 4.433594 55.300781 0 50.867188 0 45.382812 L 0 10.617188 C 0 5.132812 4.433594 0.699219 9.917969 0.699219 Z M 9.917969 0.699219 "/>
<path style=" stroke:none;fill-rule:nonzero;fill:rgb(100%,38.039216%,96.470588%);fill-opacity:1;" d="M 29.445312 15.050781 L 22.445312 26.601562 L 29.914062 38.851562 C 29.960938 38.941406 29.984375 39.035156 29.960938 39.128906 C 29.9375 39.222656 29.84375 39.152344 29.703125 39.175781 L 24.359375 39.175781 C 23.988281 39.175781 23.730469 39.152344 23.566406 38.921875 C 23.078125 37.941406 22.5625 36.984375 22.074219 36.003906 C 21.582031 35.046875 21.046875 34.066406 20.488281 33.0625 C 19.925781 32.058594 19.367188 31.058594 18.808594 30.03125 L 18.761719 30.03125 C 18.269531 31.035156 17.734375 32.035156 17.195312 33.039062 C 16.660156 34.042969 16.125 35.046875 15.609375 36.027344 C 15.074219 37.007812 14.535156 38.011719 14 38.964844 C 13.90625 39.199219 13.71875 39.222656 13.464844 39.222656 L 8.328125 39.222656 C 8.238281 39.222656 8.167969 39.269531 8.167969 39.152344 C 8.144531 39.058594 8.167969 38.964844 8.214844 38.898438 L 15.46875 26.996094 L 8.398438 15.027344 C 8.328125 14.933594 8.308594 14.839844 8.351562 14.792969 C 8.398438 14.722656 8.492188 14.699219 8.585938 14.699219 L 13.882812 14.699219 C 14 14.699219 14.117188 14.722656 14.210938 14.746094 C 14.304688 14.792969 14.375 14.863281 14.441406 14.957031 C 14.886719 15.960938 15.398438 16.964844 15.9375 17.964844 C 16.496094 18.96875 17.035156 19.949219 17.617188 20.929688 C 18.175781 21.910156 18.691406 22.890625 19.179688 23.894531 L 19.226562 23.894531 C 19.714844 22.867188 20.230469 21.863281 20.742188 20.882812 C 21.257812 19.902344 21.792969 18.921875 22.328125 17.941406 C 22.867188 16.964844 23.378906 15.960938 23.894531 15.003906 C 23.917969 14.910156 23.964844 14.816406 24.035156 14.769531 C 24.125 14.722656 24.21875 14.699219 24.335938 14.722656 L 29.261719 14.722656 C 29.375 14.699219 29.492188 14.769531 29.515625 14.886719 C 29.539062 14.910156 29.492188 15.003906 29.445312 15.050781 Z M 29.445312 15.050781 "/>
<path style=" stroke:none;fill-rule:nonzero;fill:rgb(100%,38.039216%,96.470588%);fill-opacity:1;" d="M 40.226562 39.667969 C 38.5 39.691406 36.773438 39.339844 35.210938 38.617188 C 33.738281 37.941406 32.527344 36.820312 31.6875 35.441406 C 30.824219 34.019531 30.402344 32.246094 30.402344 30.125 C 30.378906 28.398438 30.824219 26.691406 31.6875 25.199219 C 32.574219 23.683594 33.855469 22.421875 35.398438 21.582031 C 37.03125 20.671875 38.988281 20.230469 41.300781 20.230469 C 41.417969 20.230469 41.578125 20.230469 41.789062 20.253906 C 42 20.277344 42.234375 20.277344 42.511719 20.300781 L 42.511719 12.925781 C 42.511719 12.761719 42.582031 12.671875 42.746094 12.671875 L 47.484375 12.671875 C 47.601562 12.648438 47.691406 12.738281 47.714844 12.832031 C 47.714844 12.855469 47.714844 12.878906 47.714844 12.878906 L 47.714844 35.09375 C 47.714844 35.511719 47.738281 35.980469 47.761719 36.492188 C 47.808594 36.984375 47.832031 37.449219 47.855469 37.847656 C 47.855469 38.011719 47.785156 38.148438 47.625 38.21875 C 46.410156 38.734375 45.125 39.105469 43.820312 39.339844 C 42.628906 39.550781 41.441406 39.667969 40.226562 39.667969 Z M 42.511719 35 L 42.511719 24.734375 C 42.304688 24.6875 42.09375 24.640625 41.882812 24.617188 C 41.625 24.59375 41.371094 24.570312 41.113281 24.570312 C 40.203125 24.570312 39.292969 24.757812 38.476562 25.175781 C 37.683594 25.574219 37.007812 26.15625 36.492188 26.902344 C 35.980469 27.648438 35.722656 28.652344 35.722656 29.867188 C 35.699219 30.683594 35.839844 31.5 36.121094 32.269531 C 36.351562 32.898438 36.703125 33.460938 37.171875 33.925781 C 37.613281 34.347656 38.148438 34.671875 38.757812 34.859375 C 39.386719 35.070312 40.039062 35.164062 40.691406 35.164062 C 41.042969 35.164062 41.371094 35.140625 41.671875 35.117188 C 41.976562 35.140625 42.234375 35.09375 42.511719 35 Z M 42.511719 35 "/>
</g>
</svg>
