<svg xmlns="http://www.w3.org/2000/svg" xmlns:xlink="http://www.w3.org/1999/xlink">
    <defs>
        <linearGradient id="Áåçûìÿííûé_ãðàäèåíò_13" x1="-4445.53" y1="-1360.09" x2="-4445.53" y2="-1595.02">
            <stop offset="0" stop-color="#42e8e0"/>
            <stop offset=".02" stop-color="#40deda"/>
            <stop offset=".11" stop-color="#37adbc"/>
            <stop offset=".22" stop-color="#2e82a2"/>
            <stop offset=".32" stop-color="#285e8c"/>
            <stop offset=".43" stop-color="#22417a"/>
            <stop offset=".55" stop-color="#1e2a6c"/>
            <stop offset=".67" stop-color="#1a1a63"/>
            <stop offset=".81" stop-color="#19105d"/>
            <stop offset="1" stop-color="#180d5b"/>
        </linearGradient>
        <linearGradient id="Áåçûìÿííûé_ãðàäèåíò_13-2" x1="-4459.8" y1="-1372.45" x2="-4459.8" y2="-1607.38" href="#Áåçûìÿííûé_ãðàäèåíò_13"/>
        <linearGradient id="Áåçûìÿííûé_ãðàäèåíò_13-3" x1="-4474.08" y1="-1384.81" x2="-4474.08" y2="-1619.75" href="#Áåçûìÿííûé_ãðàäèåíò_13"/>
        <linearGradient id="Áåçûìÿííûé_ãðàäèåíò_3" x1="2462.15" y1="223.62" x2="2628.19" y2="223.62">
            <stop offset="0" stop-color="#c0bff6"/>
            <stop offset=".29" stop-color="#c5c4f7"/>
            <stop offset=".64" stop-color="#d3d2f9"/>
            <stop offset="1" stop-color="#e9e9fd"/>
        </linearGradient>
        <linearGradient id="Áåçûìÿííûé_ãðàäèåíò_24" x1="2462.15" y1="266.21" x2="2490.66" y2="266.21">
            <stop offset="0" stop-color="#5761d7"/>
            <stop offset=".18" stop-color="#5c66d9"/>
            <stop offset=".39" stop-color="#6a73df"/>
            <stop offset=".61" stop-color="#8289e8"/>
            <stop offset=".85" stop-color="#a3a7f5"/>
            <stop offset="1" stop-color="#bcbeff"/>
        </linearGradient>
        <linearGradient id="Áåçûìÿííûé_ãðàäèåíò_24-2" x1="2484.4" y1="314.07" x2="2718.9" y2="314.07" href="#Áåçûìÿííûé_ãðàäèåíò_24"/>
        <linearGradient id="Áåçûìÿííûé_ãðàäèåíò_3-2" x1="2563.19" y1="306.25" x2="2797.82" y2="306.25" href="#Áåçûìÿííûé_ãðàäèåíò_3"/>
        <linearGradient id="Áåçûìÿííûé_ãðàäèåíò_3-3" x1="2602.93" y1="319.57" x2="2662.99" y2="319.57" href="#Áåçûìÿííûé_ãðàäèåíò_3"/>
        <linearGradient id="Áåçûìÿííûé_ãðàäèåíò_3-4" x1="2473.55" y1="254.25" x2="2708.18" y2="254.25" href="#Áåçûìÿííûé_ãðàäèåíò_3"/>
        <linearGradient id="Áåçûìÿííûé_ãðàäèåíò_3-5" x1="2458.11" y1="237.02" x2="2518.17" y2="237.02" href="#Áåçûìÿííûé_ãðàäèåíò_3"/>
        <linearGradient id="Áåçûìÿííûé_ãðàäèåíò_2" x1="320.94" y1="66.6" x2="388.03" y2="66.6">
            <stop offset="0" stop-color="#5761d7"/>
            <stop offset=".07" stop-color="#5472d8"/>
            <stop offset=".28" stop-color="#4e9cdb"/>
            <stop offset=".48" stop-color="#49bddd"/>
            <stop offset=".67" stop-color="#45d5df"/>
            <stop offset=".85" stop-color="#43e3e0"/>
            <stop offset="1" stop-color="#42e8e0"/>
        </linearGradient>
        <linearGradient id="Dégradé_sans_nom_97" x1="468.34" y1="195.38" x2="527.19" y2="195.38">
            <stop offset="0" stop-color="#3199c9"/>
            <stop offset="1" stop-color="#14288f"/>
        </linearGradient>
        <linearGradient id="Dégradé_sans_nom_87" x1="466.57" y1="153.8" x2="528.96" y2="153.8">
            <stop offset="0" stop-color="#443991"/>
            <stop offset=".25" stop-color="#39b2c1"/>
            <stop offset="1" stop-color="#24126a"/>
        </linearGradient>
        <linearGradient id="Dégradé_sans_nom_29" x1="4.65" y1="17.73" x2="55.33" y2="17.73" href="#Dégradé_sans_nom_97"/>
        <linearGradient id="Dégradé_sans_nom_94" x1="472.42" y1="143.94" x2="536.33" y2="143.94">
            <stop offset="0" stop-color="#24126a"/>
            <stop offset=".17" stop-color="#24146b"/>
            <stop offset=".26" stop-color="#251c70"/>
            <stop offset=".33" stop-color="#272a77"/>
            <stop offset=".38" stop-color="#2a3d81"/>
            <stop offset=".44" stop-color="#2d558f"/>
            <stop offset=".49" stop-color="#3274a0"/>
            <stop offset=".53" stop-color="#3798b4"/>
            <stop offset=".57" stop-color="#3dc1ca"/>
            <stop offset=".61" stop-color="#42e8e0"/>
            <stop offset=".64" stop-color="#43d1d5"/>
            <stop offset=".7" stop-color="#44a4c1"/>
            <stop offset=".76" stop-color="#457eaf"/>
            <stop offset=".82" stop-color="#4661a2"/>
            <stop offset=".88" stop-color="#474d99"/>
            <stop offset=".94" stop-color="#474093"/>
            <stop offset="1" stop-color="#473c91"/>
        </linearGradient>
        <linearGradient id="Dégradé_sans_nom_29-2" x1="467.06" y1="150.63" x2="528.47" y2="150.63" href="#Dégradé_sans_nom_97"/>
        <radialGradient id="Áåçûìÿííûé_ãðàäèåíò_211" cx="-2190.47" cy="-516.42" r="93.46">
            <stop offset="0" stop-color="#42e8e0"/>
            <stop offset=".15" stop-color="#33aeb9"/>
            <stop offset=".31" stop-color="#267a95"/>
            <stop offset=".47" stop-color="#1b5078"/>
            <stop offset=".62" stop-color="#132e61"/>
            <stop offset=".76" stop-color="#0d1651"/>
            <stop offset=".89" stop-color="#090847"/>
            <stop offset="1" stop-color="#080344"/>
        </radialGradient>
        <radialGradient id="Áåçûìÿííûé_ãðàäèåíò_211-2" cx="-2148.62" cy="-169.81" r="63.13" href="#Áåçûìÿííûé_ãðàäèåíò_211"/>
        <clipPath id="clip-path" transform="translate(-57.49 -117.47)">
            <path id="SVGID" d="m329.47 133.68-138.55 79.99 17.18 101.29 138.46-79.94-17.09-101.34z"/>
        </clipPath>
        <style>
            .cls-9{opacity:.5}.cls-10,.cls-11,.cls-8,.cls-9{fill:#42e8e0}.cls-8{opacity:.3}.cls-10{opacity:.7}.cls-17{fill:#24126a}.cls-23{fill:#2842a2}.cls-25{fill:#9198db}.tld-4{fill:#06033e;opacity:.4}.tld-10{fill:#c0bff6}
        </style>
    </defs>
    <g>
        <g id="Ñëîé_1" data-name="Ñëîé 1">
            <g class="animate-reverse">
                <g id="class-1">
                    <path id="class-3" d="m60 287.5 139.83-80.73 230.32 133.12a3 3 0 0 1 0 5.19L300.36 420a11.07 11.07 0 0 1-11.1 0Z" transform="translate(-57.49 -117.47)" />
                </g>
                <g id="class-2">
                    <path id="class-4" d="m60 273.22 139.83-80.73 230.32 133.12a3 3 0 0 1 0 5.2l-129.79 74.93a11.11 11.11 0 0 1-11.1 0Z" transform="translate(-57.49 -117.47)"/>
                </g>
                <path id="class-5" d="m60 259 139.83-80.73 230.32 133.07a3 3 0 0 1 0 5.19l-129.79 74.93a11.07 11.07 0 0 1-11.1 0Z" transform="translate(-57.49 -117.47)"/>
                <ellipse id="class-6" cx="114.47" cy="66.09" rx="114.47" ry="66.09" />
                <ellipse id="class-7" cx="378.39" cy="260.32" rx="77.32" ry="44.64" />
            </g>
            <g class="animate">
                <path class="cls-8" d="m114.24 114.32-25.98-15 25.98-15 25.98 15-25.98 15z"/>
                <path class="cls-9" d="m114.24 97.04-25.98-15 25.98-15.01 25.98 15.01-25.98 15z"/>
                <path class="cls-10" d="M114.24 83.19 88.26 68.18l25.98-15 25.98 15-25.98 15.01z"/>
                <path class="cls-11" d="M171.73 201.39a.68.68 0 0 1-.36-.1l-26-15a.74.74 0 0 1 0-1.28l26-15a.75.75 0 0 1 .74 0l26 15a.74.74 0 0 1 0 1.28l-26 15a.69.69 0 0 1-.38.1Zm-24.51-15.74 24.51 14.15 24.51-14.15-24.51-14.15Z" transform="translate(-57.49 -117.47)"/>
            </g>
            <g class="animate">
                <path class="cls-11" d="M294.94 393.53a12.9 12.9 0 0 1-6.48-1.74l-74.73-43.14a3.74 3.74 0 0 1 0-6.48l135.21-78.06a.73.73 0 0 1 .73 0l80.85 46.67a3.74 3.74 0 0 1 0 6.48l-129.1 74.53a12.9 12.9 0 0 1-6.48 1.74Zm54.37-127.93-134.84 77.85a2.26 2.26 0 0 0 0 3.92l74.73 43.15a11.75 11.75 0 0 0 11.49 0L429.78 316a2.27 2.27 0 0 0 0-3.93Z" transform="translate(-57.49 -117.47)" id="class-8" />
            </g>
            <g class="animate">
                <path d="m349.47 234-18-106.7 1.44-.61-2.17-1.24a1.57 1.57 0 0 0-1.68.11l-143.73 83a4.06 4.06 0 0 0-1.87 3.65l18.13 107.55a1.32 1.32 0 0 0 .76 1.09l2.15 1.15.37-2h-.13l142.87-82.4a4 4 0 0 0 1.86-3.6Z" transform="translate(-57.49 -117.47)" id="class-9"/>
                <path d="m186.16 211.43-2.36-1.05a3.23 3.23 0 0 0-.31 1.78l18.13 107.55a1.32 1.32 0 0 0 .76 1.09l2.12 1.2.37-2h-.13l7.23-4.17Z" transform="translate(-57.49 -117.47)" id="class-10" />
                <path class="cls-11" d="m349.47 234-18-106.7 1.1-.46c-.38-.68-1.16-.83-2.06-.31l-143.73 83a4.08 4.08 0 0 0-1.87 3.65l18.13 107.55a1.77 1.77 0 0 0 .27.7l.85.48a1.47 1.47 0 0 0 .36 0l.33-1.78h-.13l142.89-82.53a4 4 0 0 0 1.86-3.6Z" transform="translate(-57.49 -117.47)"/>
                <path class="cls-17" d="m349.86 238.89-143.73 83c-1.11.64-2.06.27-2.26-.88l-18.12-107.56a4 4 0 0 1 1.86-3.65l143.74-83c1.11-.64 2.06-.27 2.25.88l18.13 107.54a4 4 0 0 1-1.87 3.67Z" transform="translate(-57.49 -117.47)"/>
                <g id="class-11">
                    <path id="class-12" d="M271.97 16.22 133.43 96.21l17.18 101.28 138.45-79.93-17.09-101.34z"/>
                </g>
                <path d="m440.21 289.81-7.84 4.1-78.66-45.41a5.69 5.69 0 0 0-5.13.21L212.92 327c-1.29-.72-7.21-3.57-7.21-3.57l2.87 7.48a1.72 1.72 0 0 0 .8.89l82.84 47.83a5.74 5.74 0 0 0 5.14-.21l138.81-80.15a2.49 2.49 0 0 0 1.17-1.24Z" transform="translate(-57.49 -117.47)" id="class-13" />
                <path d="m439 291.1-142.27 82.14a5.84 5.84 0 0 1-5.26.22l-84.9-49c-1.35-.78-1.18-2.14.38-3l142.27-82.14a5.84 5.84 0 0 1 5.26-.22l84.9 49c1.35.74 1.18 2.1-.38 3Z" transform="translate(-57.49 -117.47)" id="class-14"/>
                <path d="m439 290.28-142.27 82.14a5.84 5.84 0 0 1-5.26.22l-84.9-49a1.74 1.74 0 0 1-.83-.91 1.44 1.44 0 0 0 .83 1.73l84.9 49a5.84 5.84 0 0 0 5.26-.22L439 291.1c1.05-.6 1.45-1.41 1.2-2.12a2.52 2.52 0 0 1-1.2 1.3Z" transform="translate(-57.49 -117.47)" id="class-15" />
                <path class="cls-23" d="M253.82 355.47v-1.56c0-.15.09-.21.2-.15l5.5 3.18a.47.47 0 0 1 .2.38v1.56c0 .15-.09.22-.2.15l-5.5-3.17a.5.5 0 0 1-.2-.39ZM262 360.22v-1.56c0-.14.09-.21.21-.15l5.5 3.18a.48.48 0 0 1 .2.38v1.56c0 .15-.09.22-.2.16l-5.5-3.18a.48.48 0 0 1-.21-.39Z" transform="translate(-57.49 -117.47)"/>
                <path d="m228.7 319.85 118.23-68.26a2.58 2.58 0 0 1 2.55 0l42.1 24.41a.91.91 0 0 1 0 1.57L273.4 345.75a2.51 2.51 0 0 1-2.54 0l-42.16-24.33a.91.91 0 0 1 0-1.57Z" transform="translate(-57.49 -117.47)" id="class-16"/>
                <path class="cls-25" d="m228.7 321.42.43.25 117.8-68a2.55 2.55 0 0 1 2.55 0l41.67 24.11.43-.25a.91.91 0 0 0 0-1.57l-42.1-24.36a2.58 2.58 0 0 0-2.55 0L228.7 319.85a.91.91 0 0 0 0 1.57Z" transform="translate(-57.49 -117.47)"/>
                <path class="cls-17" d="m295.16 140.3-102.7 59.29-4.56-2.64 102.7-59.29 4.56 2.64zM306.36 146.76l-96.33 55.62-4.57-2.64 96.33-55.61 4.57 2.63zM313.65 150.97l-113.42 65.48-4.56-2.64 113.41-65.47 4.57 2.63zM320.94 155.18l-113.41 65.48-4.57-2.64 113.41-65.48 4.57 2.64zM328.23 159.39l-113.41 65.48-4.57-2.64 113.41-65.48 4.57 2.64zM186.26 203.17l-4.57 2.64-4.56-2.64 4.56-2.63 4.57 2.63zM202.37 206.8l-9.48 5.47-4.57-2.63 9.48-5.48 4.57 2.64z"/>
                <path d="M351.48 336.37 383.36 318a1.38 1.38 0 0 0 0-2.61l-21.8-12.59a5 5 0 0 0-4.51 0l-31.88 18.41c-1.25.72-1.25 1.89 0 2.6L347 336.37a5 5 0 0 0 4.48 0Z" transform="translate(-57.49 -117.47)" id="class-17" />
                <path class="cls-25" d="m325.17 322.25 31.88-18.41a5 5 0 0 1 4.51 0l21.8 12.59a1.92 1.92 0 0 1 .78.77c.33-.63.08-1.34-.78-1.84l-21.8-12.59a5 5 0 0 0-4.51 0l-31.88 18.41c-.86.5-1.11 1.21-.78 1.84a1.86 1.86 0 0 1 .78-.77Z" transform="translate(-57.49 -117.47)"/>
                <g class="code">
                    <path class="cls-11" d="m190.12 80.01-16.31 9.43-.33-1.95 16.31-9.43.33 1.95zM195.87 76.69l-4.04 2.33-.33-1.95 4.04-2.33.33 1.95zM178.98 91.33l-4.42 2.55-.33-1.94 4.42-2.56.33 1.95zM189.35 85.34l-8.66 5-.33-1.95 8.66-5 .33 1.95zM193.8 82.76l-2.74 1.59-.33-1.95 2.74-1.59.33 1.95zM204.25 76.73l-8.66 5.01-.33-1.95 8.66-5.01.33 1.95zM208.71 74.16l-2.74 1.58-.33-1.94 2.74-1.59.33 1.95zM184.35 93.1l-9.04 5.23-.33-1.95 9.04-5.22.33 1.94zM192.6 88.33l-6.54 3.78-.33-1.94 6.54-3.78.33 1.94zM198.73 84.79l-4.42 2.55-.33-1.94 4.42-2.56.33 1.95zM205.11 81.11l-4.42 2.56-.33-1.95 4.42-2.55.33 1.94zM215.48 75.12l-8.66 5.01-.33-1.95 8.66-5.01.33 1.95zM219.94 72.55l-2.75 1.58-.32-1.95 2.74-1.58.33 1.95zM185.16 97.52l-9.04 5.23-.33-1.95 9.04-5.22.33 1.94zM193.41 92.75l-6.54 3.78-.33-1.94 6.54-3.78.33 1.94zM199.54 89.21l-4.42 2.56-.33-1.95 4.42-2.55.33 1.94zM205.86 85.56l-4.42 2.56-.33-1.95 4.42-2.55.33 1.94zM224.53 74.8l-16.31 9.42-.33-1.94 16.31-9.43.33 1.95zM230.28 71.47l-4.04 2.34-.33-1.95 4.04-2.33.33 1.94zM241.59 64.95l-9.04 5.23-.33-1.95 9.04-5.22.33 1.94zM249.84 60.19l-6.54 3.78-.33-1.95 6.54-3.78.33 1.95zM255.97 56.64l-4.42 2.56-.33-1.95 4.42-2.55.33 1.94zM177.29 109.72l4.04-2.33.33 1.95-4.04 2.33-.33-1.95zM179.92 105.43l-3.05 1.77-.33-1.95 3.05-1.77.33 1.95zM185.67 102.11l-4.04 2.33-.32-1.95 4.03-2.33.33 1.95zM193.88 97.36l-6.5 3.76-.33-1.95 6.51-3.76.32 1.95zM183.04 106.4l3.06-1.76.33 1.94-3.06 1.77-.33-1.95zM183.42 110.97l4.04-2.33.33 1.94-4.04 2.34-.33-1.95zM189.17 107.65l3.06-1.77.33 1.95-3.06 1.76-.33-1.94zM184.12 115.45l2.74-1.58.33 1.94-2.74 1.59-.33-1.95zM188.58 112.88l8.66-5.01.32 1.95-8.65 5-.33-1.94zM191.25 116.24l2.74-1.59.33 1.95-2.74 1.59-.33-1.95zM195.52 113.77l2.74-1.59.33 1.95-2.74 1.58-.33-1.94zM199.95 111.21l3.06-1.77.33 1.95-3.06 1.77-.33-1.95zM204.31 108.7l7.32-4.23.33 1.94-7.32 4.23-.33-1.94zM212.94 103.72l4.35-2.52.33 1.94-4.36 2.52-.32-1.94zM192.05 121.01l2.74-1.58.33 1.94-2.74 1.59-.33-1.95zM196.51 118.44l8.66-5.01.33 1.95-8.66 5.01-.33-1.95zM192.8 125.44l4.04-2.33.32 1.94-4.03 2.33-.33-1.94zM198.55 122.11l3.05-1.76.33 1.95-3.05 1.76-.33-1.95zM193.5 129.92l2.74-1.59.33 1.95-2.74 1.58-.33-1.94zM197.95 127.34l8.66-5 .33 1.94-8.66 5.01-.33-1.95zM187.99 138l2.74-1.59.33 1.95-2.74 1.59-.33-1.95zM192.26 135.53l2.75-1.59.33 1.95-2.75 1.58-.33-1.94zM196.72 132.95l8.76-5.06.33 1.95-8.76 5.06-.33-1.95zM207.35 127.16l6.51-3.76.33 1.94-6.51 3.76-.33-1.94zM188.74 142.44l6.5-3.75.33 1.94-6.5 3.76-.33-1.95zM196.96 137.7l4.03-2.33.33 1.94-4.04 2.33-.32-1.94zM202.7 134.37l3.06-1.76.33 1.95-3.06 1.76-.33-1.95zM194.47 143.99l4.41-2.55.33 1.94-4.42 2.56-.32-1.95zM184.09 149.98l8.66-5 .33 1.95-8.66 5-.33-1.95zM190.77 151.04l-5.92 3.42.33 1.94 5.92-3.42-.33-1.94zM193.1 149.69l2.75-1.59.33 1.95-2.75 1.58-.33-1.94zM197.38 147.22l2.74-1.59.33 1.95-2.74 1.58-.33-1.94zM201.83 144.64l8.77-5.07.33 1.95-8.77 5.07-.33-1.95zM212.31 138.59l9.36-5.41.33 1.95-9.36 5.4-.33-1.94zM223.68 132.02l4.41-2.56.33 1.95-4.42 2.55-.32-1.94zM229.81 128.47l6.54-3.78.32 1.95-6.53 3.78-.33-1.95zM238.06 123.7l9.04-5.22.33 1.95-9.04 5.22-.33-1.95zM185.6 158.88l11.21-6.48.32 1.94-11.2 6.48-.33-1.94zM198.61 151.36l6.11-3.53.32 1.95-6.1 3.53-.33-1.95zM206.54 146.79l2.74-1.59.33 1.95-2.74 1.58-.33-1.94zM211 144.21l1.51-.87.33 1.94-1.52.88-.32-1.95zM214.22 142.35l4.42-2.56.33 1.95-4.42 2.55-.33-1.94zM220.67 138.65l4.42-2.55.33 1.94-4.42 2.56-.33-1.95zM226.81 135.11l6.53-3.78.33 1.94-6.54 3.78-.32-1.94zM235.06 130.34l9.04-5.23.33 1.95-9.05 5.22-.32-1.94z"/>
                </g>
            </g>
            <g class="animate-coffee-support">
                <path class="cls-10" transform="translate(-10.49 -275.47)" d="m383.4 411.6-35.8-20.7 35.8-20.7 35.8 20.7z"/>
                <path class="cls-11" d="M383.4 412.6c-.2 0-.4 0-.5-.1l-35.8-20.7c-.3-.2-.5-.5-.5-.9s.2-.7.5-.9l35.8-20.7c.3-.2.7-.2 1 0l35.8 20.7c.3.2.5.5.5.9s-.2.7-.5.9l-35.8 20.7c-.2 0-.3.1-.5.1zm-33.8-21.7 33.8 19.5 33.8-19.5-33.8-19.5-33.8 19.5z" transform="translate(-10.49 -275.47)"/>
            </g>
            <g class="animate">
                <path class="cls-10" transform="translate(182.49 233.47)" d="M114.24 83.19 88.26 68.18l25.98-15 25.98 15-25.98 15.01z"/>
                <path class="cls-11" d="M171.73 201.39a.68.68 0 0 1-.36-.1l-26-15a.74.74 0 0 1 0-1.28l26-15a.75.75 0 0 1 .74 0l26 15a.74.74 0 0 1 0 1.28l-26 15a.69.69 0 0 1-.38.1Zm-24.51-15.74 24.51 14.15 24.51-14.15-24.51-14.15Z" transform="translate(125.49 115.47)"/>
                <path class="cls-10" d="m378.39 268.19-13.63-7.87 13.63-7.87 13.63 7.87-13.63 7.87z"/>
                <path class="cls-9" d="m378.39 260.32-13.63-7.87 13.63-7.87 13.63 7.87-13.63 7.87z"/>
                <path class="cls-8" d="m378.39 252.45-13.63-7.87 13.63-7.87 13.63 7.87-13.63 7.87z"/>
                <path class="cls-11" d="M435.88 386.39a.81.81 0 0 1-.37-.09l-13.63-7.88a.73.73 0 0 1 0-1.27l13.63-7.87a.75.75 0 0 1 .74 0l13.63 7.87a.73.73 0 0 1 0 1.27l-13.63 7.88a.78.78 0 0 1-.37.09Zm-12.16-8.6 12.16 7 12.16-7-12.16-7Z" transform="translate(-57.49 -117.47)"/>
                <path class="cls-10" d="m80.02 220.14-13.63-7.87 13.63-7.87 13.64 7.87-13.64 7.87z"/>
                <path class="cls-11" d="M137.52 338.35a.79.79 0 0 1-.37-.1l-13.64-7.87a.76.76 0 0 1-.37-.64.75.75 0 0 1 .37-.64l13.64-7.87a.73.73 0 0 1 .73 0l13.64 7.87a.73.73 0 0 1 .37.64.74.74 0 0 1-.37.64l-13.64 7.87a.78.78 0 0 1-.36.1Zm-12.16-8.61 12.16 7 12.15-7-12.16-7Z" transform="translate(-57.49 -117.47)"/>
            </g>
        </g>
    </g>
    <g class="animate-coffee">
        <ellipse cx="29.99" cy="108.73" rx="20.66" ry="11.93" transform="translate(468 45)" id="class-18"/>
        <path d="M527.19 156.61h-58.85l5.47 63.72c0 3.54 2.34 7.07 7 9.77 9.35 5.4 24.52 5.4 33.87 0 4.68-2.7 7-6.23 7-9.77Z" transform="translate(.49 -90.47)" id="class-19"/>
        <path d="M527.19 156.61h-58.85l.9 10.48a22.92 22.92 0 0 0 5.45 4.91c11.25 7.46 29.8 8.9 42.46 3.53l-1.95 46.6a9.15 9.15 0 0 1-2.11 5.55c-1.9 2.25-5.58 4.89-12.64 6.38a33.16 33.16 0 0 0 14.25-4c4.68-2.7 7-6.23 7-9.77l4.39-51.1Z" transform="translate(.49 -90.47)" id="class-20"/>
        <ellipse class="tld-4" cx="31.19" cy="23.72" rx="29.42" ry="16.99" transform="translate(.49 -90.47)"/>
        <ellipse class="tld-4" cx="31.19" cy="17.73" rx="25.34" ry="14.63" transform="translate(.49 -90.47)"/>
        <path d="M528.93 155.81a.28.28 0 0 1 0-.09l-.57-5.71v.07c-.25-4.32-3.23-8.6-8.94-11.89-11.94-6.9-31.31-6.9-43.26 0-5.85 3.38-8.83 7.79-8.95 12.21l-.54 5.08v.48c-.32 4.84 2.71 9.74 9.11 13.44 12.19 7 31.94 7 44.12 0 6.36-3.78 9.4-8.72 9.03-13.59Z" transform="translate(.49 -90.47)" id="class-21" />
        <ellipse cx="29.99" cy="17.73" rx="25.34" ry="14.63" transform="translate(.49 -90.47)" id="class-22"/>
        <path class="tld-4" d="M483.34 51.99c9.9-5.72 25.94-5.72 35.84 0 .13.07.23.15.35.22a19.82 19.82 0 0 0-3.36-2.4c-9.89-5.72-25.94-5.72-35.84 0s-9.84 14.72-.35 20.46c-6.36-5.66-5.25-13.31 3.36-18.28Z"/>
        <path d="M479.84 142.82c9.9-5.72 26-5.72 35.84 0 4.39 2.53 6.83 5.76 7.33 9.08.62-4.16-1.82-8.44-7.33-11.62-9.89-5.72-25.94-5.72-35.84 0-5.51 3.18-7.94 7.46-7.32 11.61.48-3.31 2.93-6.54 7.32-9.07Z" transform="translate(.49 -90.47)" id="class-23"/>
        <path d="M519.58 138.28c-11.93-7-31.37-7.2-43.42-.38s-12.15 18-.22 25.07 31.37 7.2 43.42.38 12.15-18.04.22-25.07Zm-3.9 22.72a32.87 32.87 0 0 1-11.52 3.8l-.46-1.51a1.46 1.46 0 0 0-1.39-1h-9.1a1.44 1.44 0 0 0-1.38 1l-.46 1.51a33 33 0 0 1-11.53-3.8c-9.89-5.71-9.89-15 0-20.69s26-5.72 35.84 0 9.9 14.95 0 20.69Z" transform="translate(.49 -90.47)" id="class-24" />
        <path d="M500.48 164.09H495a.67.67 0 0 0-.68.68v.1a1.13 1.13 0 0 0 0 .18.68.68 0 0 1 .65-.5h5.44a.67.67 0 0 1 .65.5.58.58 0 0 0 0-.18v-.1a.68.68 0 0 0-.58-.68Z" transform="translate(.49 -90.47)" id="class-25"/>
        <path class="tld-10" d="M496.98 126.53a4.89 4.89 0 1 1-9.45-2.51c.69-2.61 3.15-3.35 5.76-2.65s4.38 2.51 3.69 5.16ZM500.82 121.34a2.16 2.16 0 1 1-3-3.09c1-1 2.85-1.44 3.69-.58s.3 2.71-.69 3.67ZM495.71 117.25a2.16 2.16 0 1 1-4.22-.72c.24-1.36 1.49-2.83 2.67-2.62s1.79 1.99 1.55 3.34ZM489.41 116.63a2.163 2.163 0 1 1-4 1.65c-.52-1.28-.26-3.19.84-3.64s2.64.72 3.16 1.99Z"/>
    </g>
</svg>
