<svg xmlns="http://www.w3.org/2000/svg" xmlns:xlink="http://www.w3.org/1999/xlink" viewBox="0 0 498.22 524.29"><defs><style>.cls-1{fill:none;}.cls-2{clip-path:url(#clip-path);}.cls-3{fill:#2868c6;}.cls-4{fill:#342784;}.cls-5{fill:#24126a;}.cls-6{fill:#f8bd85;}.cls-7{fill:#e38b62;}.cls-8{fill:#ffdc30;}.cls-9{fill:#f8e185;}.cls-10{fill:#ba7645;}.cls-11{fill:#d4864f;}</style><clipPath id="clip-path" transform="translate(-1.48)"><circle class="cls-1" cx="250.59" cy="249.11" r="249.11"/></clipPath></defs><g id="OBJECTS"><g class="cls-2"><circle class="cls-3" cx="249.11" cy="249.11" r="249.11"/><path class="cls-4" d="M54.89,524.29h433l11.79-67.68c-18.21-18.87-92.83-61.14-167.19-95.33-24.31-11.18-109.34-21.27-144.6-.23C168.84,372.42,34.65,414.87,39.79,442.5,44.61,468.25,49.56,496.28,54.89,524.29Z" transform="translate(-1.48)"/><path class="cls-5" d="M487.91,524.29l11.79-67.68c-12.54-13-51.86-37.11-99.42-62-1,1-1.91,2.07-2.92,3.08C308.88,482.87,157,519,43.12,460.49c3.77,20.58,7.67,42.19,11.78,63.8Z" transform="translate(-1.48)"/><path class="cls-6" d="M353.18,384.82c-19.79,19.07-35.67,33.55-63.39,40.45-25.54,6.37-53.06,5.17-77.69-4.29-14.59-5.61-30-14.89-38.18-28.73-8.45-14.38,9.68-15.31,14.39-28.73,3-8.42,4.28-24.67,4.74-36.9.06-3.29.13-6.25.13-8.69.86-13.55,1.78-27.1,2.63-40.65H314.15v56.24c0,8,.39,14,1.38,18.75C319.46,372,340.68,373.25,353.18,384.82Z" transform="translate(-1.48)"/><path class="cls-7" d="M315.53,352.27c-12.5,22.5-29.8,37.63-50.78,39.27-30.13,2.24-54.93-27.1-71.7-64.92.06-3.29.13-6.25.13-8.69.86-13.55,1.78-27.1,2.63-40.65H314.15v56.24C314.15,341.48,314.54,347.53,315.53,352.27Z" transform="translate(-1.48)"/><polygon class="cls-8" points="85.05 524.29 81.92 460.85 37.13 437.93 7.78 524.29 85.05 524.29"/><circle class="cls-7" cx="337.25" cy="235.81" r="27.59" transform="translate(14.57 493.06) rotate(-73.65)"/><path class="cls-9" d="M195,235.81a27.59,27.59,0,1,1-27.59-27.59A27.59,27.59,0,0,1,195,235.81Z" transform="translate(-1.48)"/><path class="cls-6" d="M254.27,153.8,162,149.64l4.8,65.63c2.47,33.89-3.6,70.11,21.5,97.83,13,14.33,30.5,24.71,49.64,28,24.24,4.23,49.79-3,69.17-17.95,9.79-7.53,17.82-17.22,24.28-27.69,7.42-12,7.61-28.68,7.61-42.67l7.53-103.2Z" transform="translate(-1.48)"/><path class="cls-9" d="M260.28,341.15c-19.13-3.34-36.66-13.72-49.64-28-25.1-27.72-19-63.94-21.5-97.83q-2.35-32.31-4.72-64.62l-22.42-1,4.8,65.63c2.47,33.89-3.6,70.11,21.5,97.83,13,14.33,30.5,24.71,49.64,28a83.06,83.06,0,0,0,25.18.41C262.17,341.43,261.22,341.31,260.28,341.15Z" transform="translate(-1.48)"/><path class="cls-9" d="M276.61,153.8l69.85-3.15.07-1-81.09,3.65Z" transform="translate(-1.48)"/><path class="cls-7" d="M332.21,150.29l-7.49,102.55c0,14-.19,30.63-7.61,42.67-6.45,10.47-14.49,20.16-24.28,27.69A92.26,92.26,0,0,1,244.77,342c22.14,1.92,44.78-5.28,62.34-18.8,9.79-7.53,17.82-17.22,24.28-27.69,7.42-12,7.61-28.68,7.61-42.67l7.53-103.2Z" transform="translate(-1.48)"/><path class="cls-10" d="M353.45,174.44c-.41,3.58-2.31,37.32-4.06,37.84a20.8,20.8,0,0,0-7.71,3.95,23,23,0,0,0-6.33,8c-.89,1.79-5.81,21.31-3.94,21.57-3.69-.53-5.26-2.8-5.74-5.93v0c-.41-2.76.07-6.18.71-9.61a.27.27,0,0,1,0-.15c.9-4.73,2.13-9.46,1.87-12.44-.15-1.79-.34-3.57-.6-5.36-1.94-15.49-6.37-31.1-9.16-46.4-1.6-8.68-5.81-12.41-11.47-13.49-3.72-.7-8-.29-12.66.56-3.5.67-7.12,1.6-10.8,2.5a158.43,158.43,0,0,1-71.8.63c-5.22-1.15-13.45-3.91-21.49-5.21h-.08a40.57,40.57,0,0,0-11.32-.49s-.07,0-.15,0a14.22,14.22,0,0,0-8.67,3.73c-8.64,8.41-.79,26.29,1.56,35.64,4.32,19.55,2.2,43,2.68,63.08a14.66,14.66,0,0,1-6.52-7.15c-2.79-6.4-1.52-14.26-6.55-20.44-3-3.69-8.83-5.25-11.25-8.6a19.66,19.66,0,0,1-1.79-3.21c-5.84-13.55-3.83-31.88-4.5-46.4-.41-9.12,4-17,4.17-25.06.07-4.14-9.12-17.21-13.18-11a19.14,19.14,0,0,1,18.88-9.49c-2.09-7.12-4.25-13.89-4-21.42q6.65,7.71,13.3,15.5c-2.53-2.95,5.21-8.79,15.53-14.75,14.86-8.61,35.08-17.39,37.8-18,17.5-4,36.35-3.54,54.18-3.09,18.92.52,36.28,2.94,50.65-12.44a22.63,22.63,0,0,1-6.33,23.8,45.82,45.82,0,0,0,30.17-17.88c-.56.75,6.51,23.17,6.7,26.52.56,9.72-1.12,18.7-3.95,27.82-.3,1-.59,2-.93,3-3.95,12.07-2.42,8.15,3.5,16.12C356.36,154.89,354.57,164.72,353.45,174.44Z" transform="translate(-1.48)"/><path class="cls-11" d="M347.64,127.52C340,130,331.55,131.09,323,131.58c-13.82.78-28.12-.08-40.71.45-37.83,1.49-79.73.07-111.76-22.65,2.65-2.86,5.25-5.73,7.9-8.56,14.86-8.61,35.08-17.39,37.8-18,17.5-4,36.35-3.54,54.18-3.09,18.92.52,36.28,2.94,50.65-12.44a22.63,22.63,0,0,1-6.33,23.8,45.82,45.82,0,0,0,30.17-17.88c-.56.75,6.51,23.17,6.7,26.52C352.15,109.42,350.47,118.4,347.64,127.52Z" transform="translate(-1.48)"/></g></g></svg>